<?xml version="1.0" encoding="utf-8"?>
<!-- Svg Vector Icons : http://www.onlinewebfonts.com/icon -->
<!DOCTYPE svg PUBLIC "-//W3C//DTD SVG 1.1//EN" "http://www.w3.org/Graphics/SVG/1.1/DTD/svg11.dtd">
<svg version="1.1" xmlns="http://www.w3.org/2000/svg" xmlns:xlink="http://www.w3.org/1999/xlink" x="0px" y="0px" viewBox="0 0 1000 1000" enable-background="new 0 0 1000 1000" xml:space="preserve">
<metadata> Svg Vector Icons : http://www.onlinewebfonts.com/icon </metadata>
<g><path d="M434.7,10.3c123.7,0,223.9,100.3,223.9,223.9c0,123.7-100.3,223.9-223.9,223.9c-123.7,0-223.9-100.3-223.9-223.9C210.8,110.6,311,10.3,434.7,10.3L434.7,10.3z"/><path d="M844.6,828.1c0,38.9-31.6,70.5-70.5,70.5c-38.9,0-70.5-31.6-70.5-70.5v-89h-97c-38.9,0-70.5-31.6-70.5-70.5c0-38.9,31.6-70.5,70.5-70.5h97v-5.9c-73.2-60-166.9-96-268.9-96C200.1,496.2,10,686.4,10,920.9v0v68.7h849.4v-68.7c0-38.6-5.1-75.9-14.8-111.4L844.6,828.1L844.6,828.1z"/><path d="M936.4,615H827.7V506.4c0-29.6-24-53.6-53.6-53.6c-29.6,0-53.6,24-53.6,53.6V615H611.8c-29.6,0-53.6,24-53.6,53.6c0,29.6,24,53.6,53.6,53.6h108.7v108.7c0,29.6,24,53.6,53.6,53.6c29.6,0,53.6-24,53.6-53.6V722.2h108.7c29.6,0,53.6-24,53.6-53.6C990,639,966,615,936.4,615z"/></g>
</svg>